<?xml version="1.0" encoding="UTF-8"?>
<svg width="26px" height="25px" viewBox="0 0 26 25" version="1.1" xmlns="http://www.w3.org/2000/svg" xmlns:xlink="http://www.w3.org/1999/xlink">
    <!-- Generator: Sketch 47.1 (45422) - http://www.bohemiancoding.com/sketch -->
    <title>clock</title>
    <desc>Created with Sketch.</desc>
    <defs></defs>
    <g id="Page-1" stroke="none" stroke-width="1" fill="none" fill-rule="evenodd">
        <g id="Desktop-HD" transform="translate(-240.000000, -560.000000)">
            <g id="Group-2" transform="translate(230.000000, 88.000000)">
                <g id="Group" transform="translate(10.000000, 472.000000)">
                    <g id="clock">
                        <path d="M13,3 C6.925,3 2,7.925 2,14 C2,20.075 6.925,25 13,25 C19.075,25 24,20.075 24,14 C24,7.925 19.075,3 13,3 Z M14,15 L7.995,15 C7.445,15 7,14.555 7,14.005 L7,13.994 C7,13.445 7.445,13 7.995,13 L12,13 L12,6.995 C12,6.445 12.445,6 12.995,6 L13.006,6 C13.555,6 14,6.445 14,6.995 L14,15 Z" id="Shape" fill="#FFFFFF" fill-rule="nonzero"></path>
                        <path d="M18,20 L22,24" id="Shape" stroke="#FFFFFF" stroke-width="2" stroke-linecap="round"></path>
                        <path d="M8,20 L4,24" id="Shape" stroke="#FFFFFF" stroke-width="2" stroke-linecap="round"></path>
                        <path d="M24.701,8.701 C26.489,6.63 26.422,3.51 24.456,1.545 C22.49,-0.421 19.371,-0.487 17.3,1.3 L24.701,8.701 Z" id="Shape" fill="#FFFFFF" fill-rule="nonzero"></path>
                        <path d="M8.689,1.288 C6.617,-0.5 3.498,-0.433 1.532,1.532 C-0.433,3.498 -0.5,6.617 1.288,8.689 L8.689,1.288 Z" id="Shape" fill="#FFFFFF" fill-rule="nonzero"></path>
                    </g>
                </g>
            </g>
        </g>
    </g>
</svg>